<svg width="149" height="37" viewBox="0 0 149 37" fill="none" xmlns="http://www.w3.org/2000/svg">
<path d="M56.252 13.768C58.7 13.768 60.668 14.524 62.156 16.036C63.668 17.524 64.424 19.612 64.424 22.3V34H59.384V22.984C59.384 21.424 58.988 20.236 58.196 19.42C57.404 18.58 56.324 18.16 54.956 18.16C53.588 18.16 52.496 18.58 51.68 19.42C50.888 20.236 50.492 21.424 50.492 22.984V34H45.452V22.984C45.452 21.424 45.056 20.236 44.264 19.42C43.472 18.58 42.392 18.16 41.024 18.16C39.632 18.16 38.528 18.58 37.712 19.42C36.92 20.236 36.524 21.424 36.524 22.984V34H31.484V14.056H36.524V16.468C37.172 15.628 38 14.968 39.008 14.488C40.04 14.008 41.168 13.768 42.392 13.768C43.952 13.768 45.344 14.104 46.568 14.776C47.792 15.424 48.74 16.36 49.412 17.584C50.06 16.432 50.996 15.508 52.22 14.812C53.468 14.116 54.812 13.768 56.252 13.768ZM87.3147 14.056V34H82.2387V31.48C81.5907 32.344 80.7387 33.028 79.6827 33.532C78.6507 34.012 77.5227 34.252 76.2987 34.252C74.7387 34.252 73.3587 33.928 72.1587 33.28C70.9587 32.608 70.0107 31.636 69.3147 30.364C68.6427 29.068 68.3067 27.532 68.3067 25.756V14.056H73.3467V25.036C73.3467 26.62 73.7427 27.844 74.5347 28.708C75.3267 29.548 76.4067 29.968 77.7747 29.968C79.1667 29.968 80.2587 29.548 81.0507 28.708C81.8427 27.844 82.2387 26.62 82.2387 25.036V14.056H87.3147ZM99.1994 34.324C97.5674 34.324 96.1034 34.036 94.8074 33.46C93.5114 32.86 92.4794 32.056 91.7114 31.048C90.9674 30.04 90.5594 28.924 90.4874 27.7H95.5634C95.6594 28.468 96.0314 29.104 96.6794 29.608C97.3514 30.112 98.1794 30.364 99.1634 30.364C100.123 30.364 100.867 30.172 101.395 29.788C101.947 29.404 102.223 28.912 102.223 28.312C102.223 27.664 101.887 27.184 101.215 26.872C100.567 26.536 99.5234 26.176 98.0834 25.792C96.5954 25.432 95.3714 25.06 94.4114 24.676C93.4754 24.292 92.6594 23.704 91.9634 22.912C91.2914 22.12 90.9554 21.052 90.9554 19.708C90.9554 18.604 91.2674 17.596 91.8914 16.684C92.5394 15.772 93.4514 15.052 94.6274 14.524C95.8274 13.996 97.2314 13.732 98.8394 13.732C101.215 13.732 103.111 14.332 104.527 15.532C105.943 16.708 106.723 18.304 106.867 20.32H102.043C101.971 19.528 101.635 18.904 101.035 18.448C100.459 17.968 99.6794 17.728 98.6954 17.728C97.7834 17.728 97.0754 17.896 96.5714 18.232C96.0914 18.568 95.8514 19.036 95.8514 19.636C95.8514 20.308 96.1874 20.824 96.8594 21.184C97.5314 21.52 98.5754 21.868 99.9914 22.228C101.431 22.588 102.619 22.96 103.555 23.344C104.491 23.728 105.295 24.328 105.967 25.144C106.663 25.936 107.023 26.992 107.047 28.312C107.047 29.464 106.723 30.496 106.075 31.408C105.451 32.32 104.539 33.04 103.339 33.568C102.163 34.072 100.783 34.324 99.1994 34.324ZM119.609 18.196H116.117V34H111.005V18.196H108.737V14.056H111.005V13.048C111.005 10.6 111.701 8.8 113.093 7.648C114.485 6.496 116.585 5.956 119.393 6.028V10.276C118.169 10.252 117.317 10.456 116.837 10.888C116.357 11.32 116.117 12.1 116.117 13.228V14.056H119.609V18.196ZM124.711 11.68C123.823 11.68 123.079 11.404 122.479 10.852C121.903 10.276 121.615 9.568 121.615 8.728C121.615 7.888 121.903 7.192 122.479 6.64C123.079 6.064 123.823 5.776 124.711 5.776C125.599 5.776 126.331 6.064 126.907 6.64C127.507 7.192 127.807 7.888 127.807 8.728C127.807 9.568 127.507 10.276 126.907 10.852C126.331 11.404 125.599 11.68 124.711 11.68ZM127.195 14.056V34H122.155V14.056H127.195ZM142.47 34L138.366 27.808L134.73 34H129.33L135.846 23.992L129.258 14.056H134.946L139.014 20.212L142.686 14.056H148.086L141.534 23.992L148.158 34H142.47Z" fill="white"/>
<mask id="mask0_19_2644" style="mask-type:alpha" maskUnits="userSpaceOnUse" x="0" y="0" width="32" height="37">
<path d="M26.1182 11.5407L26.4881 10.6922C27.1473 9.1792 28.3347 7.97461 29.8164 7.31562L30.9558 6.80883C31.572 6.53479 31.572 5.63821 30.9558 5.36418L29.8802 4.88571C28.3604 4.20976 27.1517 2.96059 26.5037 1.39624L26.1239 0.479301C25.8593 -0.159767 24.9767 -0.159767 24.7119 0.479301L24.3321 1.39624C23.6843 2.96059 22.4756 4.20976 20.9558 4.88571L19.88 5.36418C19.2639 5.63821 19.2639 6.53479 19.88 6.80883L21.0195 7.31562C22.5012 7.97461 23.6886 9.1792 24.3479 10.6922L24.7176 11.5407C24.9884 12.1619 25.8476 12.1619 26.1182 11.5407ZM16.9983 8.00818C17.4095 8.65881 17.9715 9.13957 18.6846 9.45048L19.5326 9.82018C20.1027 10.0687 20.5644 10.4179 20.9177 10.8675V15C20.9177 19.1421 17.5598 22.5 13.4177 22.5C9.27546 22.5 5.9176 19.1421 5.9176 15V9C5.9176 4.85787 9.27546 1.5 13.4177 1.5C15.1037 1.5 16.6599 2.05641 17.9126 2.99563C17.5524 3.26517 17.2476 3.59719 16.9983 3.99171C16.6115 4.60407 16.418 5.27349 16.418 5.99995C16.418 6.72642 16.6115 7.39584 16.9983 8.00818ZM0 16.5H3.02394C3.75179 21.5884 8.1279 25.5 13.4177 25.5C18.7073 25.5 23.0834 21.5884 23.8113 16.5H26.8352C26.1435 22.7574 21.1751 27.7259 14.9177 28.4177V36.5H11.9177V28.4177C5.66017 27.7259 0.691725 22.7574 0 16.5Z" fill="#E63946"/>
</mask>
<g mask="url(#mask0_19_2644)">
<ellipse cx="14" cy="18.5" rx="15" ry="18.5" fill="#FA325A"/>
<ellipse cx="26" cy="5" rx="7" ry="8" fill="white"/>
</g>
</svg>
